<svg id="Layer_1" data-name="Layer 1" xmlns="http://www.w3.org/2000/svg" viewBox="0 0 256 307"><defs><style>.cls-1{fill:#bdbec1;}.cls-2{fill:#054981;}.cls-3{fill:#e31b38;}.cls-4{fill:#fdfdfd;}.cls-5{fill:#f9d90b;}</style></defs><path class="cls-1" d="M209.93,4c1.94,5.49,7.52,7.13,11.43,10.45,8.22,7,16.86,13.51,25.66,19.77,3.26,2.32,2.48,3.87.64,6.23-5.3,6.83-10.45,13.77-15.82,20.54-2.29,2.88-2.5,4.62,1.38,6.21,5.25,2.15,9.82,5.57,14.57,8.65a6.3,6.3,0,0,1,3.14,5.72c1.3,42-9.67,80.9-29.78,117.42a240,240,0,0,1-43.86,57.81c-13,12.49-27.15,23.5-44,30.45a11.5,11.5,0,0,1-9.48.22c-15.22-6.16-27.87-16.08-40.14-26.6-1.69-1.45-2.73-2.46-4.85-.35-11,11-23.94,19.52-35.82,29.4-4,3.29-8,6.43-12.11,9.6a15.77,15.77,0,0,1-9.21,3.38c-7.84.34-12.46-5.45-9.88-13.17,3.73-11.19,8-22.2,12.07-33.28,2.34-6.39,5.06-12.68,7-19.19,2.22-7.44,6.94-13.19,11.69-18.92,2-2.45,2.22-4.13.46-6.83A226.37,226.37,0,0,1,17,157.2c-5.94-18.38-10.11-37.1-11.15-56.49-.33-6.14-.93-12.24-.38-18.38A9.76,9.76,0,0,1,9.92,75c18-13.31,38.48-20.74,60-26,25.45-6.26,51.33-6.77,77.28-5.74,8.08.32,16.12,2,24.15,3.15,1.53.22,2.73.73,3.93-.86,10.13-13.39,20.34-26.71,30.49-40.08.25-.34.14-1,.2-1.44Z"/><path class="cls-1" d="M189.13,116.39a16.17,16.17,0,0,0-2.09-2.78c-4.7-4.1-3.29-7.49.18-11.93,15.28-19.54,30.07-39.45,45.25-59.06,2.5-3.22,2-4.69-1-6.86A204,204,0,0,1,214,22.37c-4-3.57-6-2.71-9,1.3-15.35,20.53-31,40.84-46.59,61.18-1.12,1.46-1.83,3.85-4.56,2.91s-5.6-1.92-8.74-3c6.11-8,11.89-15.7,17.87-23.25,2.34-3,2.67-4.06-1.78-4.64a256.26,256.26,0,0,0-82.44,2.35c-20.19,3.92-39.48,10.5-56.91,21.83-3.23,2.1-4.79,4.32-4.66,8.42A223,223,0,0,0,52.88,204.85c4.28-5.61,8.33-10.83,12.29-16.12,1.31-1.75,2.06-2.09,3.52.06,4.76,7,4.85,6.94-.32,13.78-.71.93-1.44,1.83-2.13,2.77-11.26,15.32-24.81,29.17-30,48.34-1.64,6.07-4.34,11.85-6.56,17.76q-3.93,10.4-7.88,20.79c12.62-8.87,24.5-18.21,36.25-27.69,5-4.06,10.58-7.51,14.55-12.83,6.67-8.94,13.52-17.74,20.29-26.61,6.36-8.34,6.36-8.34,16.12-4.11-6.14,8.08-12.16,16.26-18.48,24.19-2.13,2.67-1.9,4.12.61,6.34a168.59,168.59,0,0,0,30.81,22c4.38,2.39,8.11,2.43,12.53.06,18-9.68,33.21-22.71,46.44-38.12,33.49-39,54.17-83.7,57.63-135.37,1.3-19.34,4-13.77-13.38-23.66-3-1.7-4.45-1-6.43,1.62C209,90.94,199,103.63,189.13,116.39Z"/><path class="cls-2" d="M109,221c-9.76-4.23-9.76-4.23-16.12,4.11C86.12,234,79.27,242.77,72.6,251.71c-4,5.32-9.52,8.77-14.55,12.83C46.3,274,34.42,283.36,21.8,292.23q3.94-10.39,7.88-20.79c2.22-5.91,4.92-11.69,6.56-17.76,5.19-19.17,18.74-33,30-48.34.69-.94,1.42-1.84,2.13-2.77,5.17-6.84,5.08-6.78.32-13.78-1.46-2.15-2.21-1.81-3.52-.06-4,5.29-8,10.51-12.29,16.12A223,223,0,0,1,17.25,89.48c-.13-4.1,1.43-6.32,4.66-8.42C39.34,69.73,58.63,63.15,78.82,59.23a256.26,256.26,0,0,1,82.44-2.35c4.45.58,4.12,1.69,1.78,4.64-6,7.55-11.76,15.27-17.87,23.25,3.14,1.07,5.94,2,8.74,3s3.44-1.45,4.56-2.91c15.59-20.34,31.24-40.65,46.59-61.18,3-4,4.94-4.87,9-1.3a204,204,0,0,0,17.4,13.39c3.06,2.17,3.54,3.64,1,6.86-15.18,19.61-30,39.52-45.25,59.06-3.47,4.44-4.88,7.83-.18,11.93a16.17,16.17,0,0,1,2.09,2.78c.75,1.48,1.48,3,2.25,4.44a70.24,70.24,0,0,1-38.66,98.8C138.29,224.78,123.71,224.55,109,221ZM61.68,248.68l-9.27-7c-1.45-.57-2.7-4.83-4.45-.31-2.68,6.95-5.19,14-8,20.88-1,2.46.76,3.12,2,4.39,1.49,1.56,2.5.7,3.73-.29,5.56-4.47,11.06-9,16.77-13.29C65.53,250.73,63.92,249.77,61.68,248.68Zm29.35-36-5.28-3.74c-2-1.95-4.18-3.79-6-5.88-1.7-1.9-2.54-1.54-4,.39C70,211.16,64,218.73,58.2,226.38c-6.73,8.82-6.72,8.83,2.59,15.19l5,3.68c1.26,1.85,2.37,1.83,3.75,0Q80.69,230.48,92,215.79C93.31,214.11,93,213.17,91,212.65Zm84.9-112.15c1,1.78,1.95,3.15,3.84.61q7.26-9.78,14.78-19.37c1.29-1.64,1.35-2.58-.49-3.89-4.05-2.87-8-5.91-11.83-9.06-1.75-1.44-2.73-1.15-4,.54-3.14,4.28-6.4,8.46-9.61,12.68-7,9.22-7,9.22,3,15.08A12.16,12.16,0,0,0,175.93,100.5ZM68.69,147.68c0,33.88,27.09,61.13,60.63,61a60.84,60.84,0,1,0-60.63-61ZM200.31,40.15a25,25,0,0,1-1.43,2.38c-4.91,6.46-9.77,13-14.82,19.32-1.53,1.93-.74,2.74.79,3.88,3.87,2.85,7.76,5.69,11.42,8.79,1.89,1.59,2.91,1.41,4.28-.51,2.6-3.64,5.47-7.09,8.08-10.71,2.51-3.47,7.48-6.75,7-10.36-.52-3.92-6.33-5.68-9.69-8.56C204.45,43.1,202.79,42,200.31,40.15Zm25.75.58c-.07-1.68-1.08-2.11-1.83-2.7-3.14-2.44-6.53-4.6-9.41-7.31-3.38-3.18-5.41-2.58-7.94,1.09-3.7,5.4-3.93,5.23,1.33,9.21,2.25,1.69,4.38,3.57,6.73,5.09,1.54,1,3,3.84,4.84,2.33C222.38,46.29,224.16,43.16,226.06,40.73Z"/><path class="cls-3" d="M109,221c14.7,3.56,29.28,3.79,43.71-1.36a70.24,70.24,0,0,0,38.66-98.8c-.77-1.47-1.5-3-2.25-4.44C199,103.63,209,90.94,218.74,78.07c2-2.62,3.44-3.32,6.43-1.62,17.43,9.89,14.68,4.32,13.38,23.66-3.46,51.67-24.14,96.34-57.63,135.37-13.23,15.41-28.44,28.44-46.44,38.12-4.42,2.37-8.15,2.33-12.53-.06a168.59,168.59,0,0,1-30.81-22c-2.51-2.22-2.74-3.67-.61-6.34C96.85,237.25,102.87,229.07,109,221Z"/><path class="cls-4" d="M68.69,147.68a60.62,60.62,0,1,1,60.63,61C95.78,208.81,68.68,181.56,68.69,147.68ZM130,167.14c13.94,0,14.08-.11,19-13.06.05-.15.11-.31.16-.47,4.69-15.26,6.19-12.6-6.46-22.76-13.84-11.11-11.7-11.1-25.38,0-12.55,10.2-11.65,7.94-6.22,23.19C115.82,167.26,116.16,167.14,130,167.14Zm22.77-64.21c-3.31-5-4.57-10.89-11.42-11.89a85.1,85.1,0,0,0-21.28-.39c-6.28.66-9.69,4-12.39,9.14-1.48,2.82-1.14,3.84,2,3.86,6.25,0,12.07,1.84,17.73,4.3,1,.45,1.91,1.09,3.23.39C137.37,104.81,144.67,103.54,152.81,102.93Zm21.46,65.35a50.49,50.49,0,0,1-20.08,9.19,3,3,0,0,0-2.24,1.77c-3.2,6.84-8.35,12.15-13.93,17.13,7.32,4.95,14.2,5.37,21.24,0,3.29-2.51,6.61-4.95,9.84-7.56C175.84,183.35,177.65,176.73,174.27,168.28Zm-94-12.13a51.24,51.24,0,0,1,11.2-19,3.41,3.41,0,0,0,1-3.16,44.17,44.17,0,0,1,1.24-19.23c.59-2.08.49-3-2.21-2.57-6.43,1.08-11.46,3.51-13.91,10.22-1.88,5.15-3.46,10.32-4.92,15.59C70.37,146.28,74.4,151.16,80.29,156.15Zm98.8-.7c7.41-5.12,9.38-11.71,6.94-20-1.44-4.95-3.26-9.7-5.12-14.48-2.4-6.19-7.33-8-13.1-8.94-2.38-.39-3.42.15-2.57,2.8a46.61,46.61,0,0,1,1.54,18.72c-.11,1.17-.3,2.28.7,3.23C173,142,176.24,148.64,179.09,155.45Zm-56,41.44c-6-4.87-11.39-9.8-14.91-16.31-.77-1.41-2-1.54-3.28-1.8A48.75,48.75,0,0,1,87.33,172c-2-1.33-2.81-.93-3.08,1.47-.68,6-.37,11.38,5,15.58a143.59,143.59,0,0,0,15.17,10.32C111.51,203.55,116.93,200.53,123.05,196.89Z"/><path class="cls-4" d="M200.31,40.15c2.48,1.85,4.14,3,5.64,4.23,3.36,2.88,9.17,4.64,9.69,8.56.47,3.61-4.5,6.89-7,10.36-2.61,3.62-5.48,7.07-8.08,10.71-1.37,1.92-2.39,2.1-4.28.51-3.66-3.1-7.55-5.94-11.42-8.79-1.53-1.14-2.32-2-.79-3.88C189.11,55.5,194,49,198.88,42.53A25,25,0,0,0,200.31,40.15Z"/><path class="cls-5" d="M60.79,241.57c-9.31-6.36-9.32-6.37-2.59-15.19,5.84-7.65,11.8-15.22,17.53-23,1.44-1.93,2.28-2.29,4-.39,1.86,2.09,4,3.93,6,5.88Z"/><path class="cls-5" d="M171.62,97.09c-10-5.86-10-5.86-3-15.08,3.21-4.22,6.47-8.4,9.61-12.68,1.24-1.69,2.22-2,4-.54,3.84,3.15,7.78,6.19,11.83,9.06,1.84,1.31,1.78,2.25.49,3.89q-7.5,9.6-14.78,19.37c-1.89,2.54-2.82,1.17-3.84-.61,5.59-5.7,9.75-12.55,14.85-18.64,1.48-1.77.94-2.73-.63-4-1.82-1.46-3-1.45-4.44.53C181.09,84.68,176.33,90.86,171.62,97.09Z"/><path class="cls-4" d="M60.79,241.57l25-32.66L91,212.65q-12.65,16.29-25.28,32.6Z"/><path class="cls-3" d="M226.06,40.73c-1.9,2.43-3.68,5.56-6.28,7.71-1.81,1.51-3.3-1.34-4.84-2.33-2.35-1.52-4.48-3.4-6.73-5.09-5.26-4-5-3.81-1.33-9.21,2.53-3.67,4.56-4.27,7.94-1.09,2.88,2.71,6.27,4.87,9.41,7.31C225,38.62,226,39.05,226.06,40.73Z"/><path class="cls-5" d="M61.68,248.68c2.24,1.09,3.85,2,.77,4.35-5.71,4.28-11.21,8.82-16.77,13.29-1.23,1-2.24,1.85-3.73.29-1.21-1.27-3-1.93-2-4.39,2.79-6.91,5.3-13.93,8-20.88,1.75-4.52,3-.26,4.46.31q-3.93,8.55-7.86,17.1c-.59,1.28-1,2.44.45,3.5s2.18.08,3-.7C52.49,257.19,57.66,253.55,61.68,248.68Z"/><path class="cls-4" d="M171.62,97.09c4.71-6.23,9.47-12.41,14.09-18.7,1.45-2,2.62-2,4.44-.53,1.57,1.27,2.11,2.23.63,4-5.1,6.09-9.26,12.94-14.85,18.64A12.16,12.16,0,0,1,171.62,97.09Z"/><path class="cls-4" d="M61.68,248.68c-4,4.87-9.19,8.51-13.69,12.87-.8.78-1.63,1.7-3,.7s-1-2.22-.45-3.5q3.94-8.53,7.86-17.1Z"/><path class="cls-5" d="M65.75,245.25Q78.4,228.95,91,212.65c2,.52,2.28,1.46,1,3.14Q80.71,230.48,69.5,245.25C68.12,247.08,67,247.1,65.75,245.25Z"/><path class="cls-3" d="M130,167.14c-13.88,0-14.22.12-18.93-13.08-5.43-15.25-6.33-13,6.22-23.19,13.68-11.12,11.54-11.13,25.38,0,12.65,10.16,11.15,7.5,6.46,22.76,0,.16-.11.32-.16.47C144.12,167,144,167.14,130,167.14Z"/><path class="cls-2" d="M152.81,102.93c-8.14.61-15.44,1.88-22.12,5.41-1.32.7-2.21.06-3.23-.39-5.66-2.46-11.48-4.26-17.73-4.3-3.15,0-3.49-1-2-3.86,2.7-5.17,6.11-8.48,12.39-9.14a85.1,85.1,0,0,1,21.28.39C148.24,92,149.5,97.93,152.81,102.93Z"/><path class="cls-2" d="M174.27,168.28c3.38,8.45,1.57,15.07-5.17,20.54-3.23,2.61-6.55,5.05-9.84,7.56-7,5.36-13.92,4.94-21.24,0,5.58-5,10.73-10.29,13.93-17.13a3,3,0,0,1,2.24-1.77A50.49,50.49,0,0,0,174.27,168.28Z"/><path class="cls-2" d="M80.29,156.15c-5.89-5-9.92-9.87-7.63-18.1,1.46-5.27,3-10.44,4.92-15.59,2.45-6.71,7.48-9.14,13.91-10.22,2.7-.46,2.8.49,2.21,2.57A44.17,44.17,0,0,0,92.46,134a3.41,3.41,0,0,1-1,3.16A51.24,51.24,0,0,0,80.29,156.15Z"/><path class="cls-2" d="M179.09,155.45c-2.85-6.81-6.09-13.5-11.61-18.71-1-1-.81-2.06-.7-3.23a46.61,46.61,0,0,0-1.54-18.72c-.85-2.65.19-3.19,2.57-2.8,5.77.94,10.7,2.75,13.1,8.94,1.86,4.78,3.68,9.53,5.12,14.48C188.47,143.74,186.5,150.33,179.09,155.45Z"/><path class="cls-2" d="M123.05,196.89c-6.12,3.64-11.54,6.66-18.58,2.52A143.59,143.59,0,0,1,89.3,189.09c-5.42-4.2-5.73-9.59-5-15.58.27-2.4,1-2.8,3.08-1.47a48.75,48.75,0,0,0,17.53,6.74c1.32.26,2.51.39,3.28,1.8C111.66,187.09,117,192,123.05,196.89Z"/></svg>